<svg xmlns="http://www.w3.org/2000/svg" viewBox="0 0 640 400"><rect width="640" height="400" rx="28" fill="#f5f0e8"/><text x="38" y="58" font-family="Arial" font-size="31" font-weight="700" fill="#594731">Kennewick Man ancestry</text><text x="40" y="88" font-family="Arial" font-size="18" fill="#7a6955">genomic affinity with Native Americans</text><path d="M165 140c-42 30-55 101-18 145 27 32 84 31 111-3 35-45 18-117-25-143-20-12-48-12-68 1z" fill="#d8c3a5" stroke="#594731" stroke-width="5"/><circle cx="198" cy="205" r="7" fill="#594731"/><path d="M180 250c15 10 32 10 48 0" fill="none" stroke="#594731" stroke-width="5"/><path d="M300 225H410" stroke="#c17c36" stroke-width="9"/><path d="M385 200l31 25-31 25" fill="none" stroke="#c17c36" stroke-width="9"/><g fill="#457b9d"><circle cx="480" cy="170" r="25"/><circle cx="535" cy="225" r="25"/><circle cx="465" cy="285" r="25"/></g><path d="M480 170l55 55-70 60" fill="none" stroke="#457b9d" stroke-width="6"/></svg>
